<mxfile host="app.diagrams.net" modified="2023-08-29T18:35:00.421Z" agent="Mozilla/5.0 (Windows NT 10.0; Win64; x64) AppleWebKit/537.36 (KHTML, like Gecko) Chrome/116.0.0.0 Safari/537.36" etag="7M7m8jE1bu_9jhOgWrXv" version="21.7.0" type="github">
  <diagram id="C5RBs43oDa-KdzZeNtuy" name="Page-1">
    <mxGraphModel dx="880" dy="1647" grid="1" gridSize="10" guides="1" tooltips="1" connect="1" arrows="1" fold="1" page="1" pageScale="1" pageWidth="827" pageHeight="1169" math="0" shadow="0">
      <root>
        <mxCell id="WIyWlLk6GJQsqaUBKTNV-0" />
        <mxCell id="WIyWlLk6GJQsqaUBKTNV-1" parent="WIyWlLk6GJQsqaUBKTNV-0" />
        <mxCell id="WIyWlLk6GJQsqaUBKTNV-2" value="" style="rounded=0;html=1;jettySize=auto;orthogonalLoop=1;fontSize=11;endArrow=block;endFill=0;endSize=8;strokeWidth=1;shadow=0;labelBackgroundColor=none;edgeStyle=orthogonalEdgeStyle;entryX=0.468;entryY=0.017;entryDx=0;entryDy=0;entryPerimeter=0;" parent="WIyWlLk6GJQsqaUBKTNV-1" source="WIyWlLk6GJQsqaUBKTNV-3" target="GH097Rn8X9ysuN7K8Mlj-2" edge="1">
          <mxGeometry relative="1" as="geometry">
            <mxPoint x="600" y="230" as="targetPoint" />
          </mxGeometry>
        </mxCell>
        <mxCell id="WIyWlLk6GJQsqaUBKTNV-3" value="Recibir input numérico en el orden Alfabético." style="rounded=1;whiteSpace=wrap;html=1;fontSize=12;glass=0;strokeWidth=1;shadow=0;" parent="WIyWlLk6GJQsqaUBKTNV-1" vertex="1">
          <mxGeometry x="150" y="80" width="140" height="40" as="geometry" />
        </mxCell>
        <mxCell id="GH097Rn8X9ysuN7K8Mlj-6" style="edgeStyle=orthogonalEdgeStyle;rounded=0;orthogonalLoop=1;jettySize=auto;html=1;exitX=0.5;exitY=1;exitDx=0;exitDy=0;entryX=0.5;entryY=0;entryDx=0;entryDy=0;" edge="1" parent="WIyWlLk6GJQsqaUBKTNV-1" source="GH097Rn8X9ysuN7K8Mlj-2" target="GH097Rn8X9ysuN7K8Mlj-5">
          <mxGeometry relative="1" as="geometry" />
        </mxCell>
        <mxCell id="GH097Rn8X9ysuN7K8Mlj-2" value="Recibir imput de los siguientes símbolos [+,-,/,*] exclusivamente en el área de&amp;nbsp;hashtag" style="rounded=1;whiteSpace=wrap;html=1;" vertex="1" parent="WIyWlLk6GJQsqaUBKTNV-1">
          <mxGeometry x="130" y="150" width="190" height="60" as="geometry" />
        </mxCell>
        <mxCell id="GH097Rn8X9ysuN7K8Mlj-8" value="" style="edgeStyle=orthogonalEdgeStyle;rounded=0;orthogonalLoop=1;jettySize=auto;html=1;" edge="1" parent="WIyWlLk6GJQsqaUBKTNV-1" source="GH097Rn8X9ysuN7K8Mlj-5" target="GH097Rn8X9ysuN7K8Mlj-7">
          <mxGeometry relative="1" as="geometry" />
        </mxCell>
        <mxCell id="GH097Rn8X9ysuN7K8Mlj-5" value="A, #, B" style="shape=parallelogram;perimeter=parallelogramPerimeter;whiteSpace=wrap;html=1;fixedSize=1;" vertex="1" parent="WIyWlLk6GJQsqaUBKTNV-1">
          <mxGeometry x="340" y="250" width="120" height="60" as="geometry" />
        </mxCell>
        <mxCell id="GH097Rn8X9ysuN7K8Mlj-10" value="No" style="edgeStyle=orthogonalEdgeStyle;rounded=0;orthogonalLoop=1;jettySize=auto;html=1;" edge="1" parent="WIyWlLk6GJQsqaUBKTNV-1" source="GH097Rn8X9ysuN7K8Mlj-7" target="GH097Rn8X9ysuN7K8Mlj-9">
          <mxGeometry relative="1" as="geometry" />
        </mxCell>
        <mxCell id="GH097Rn8X9ysuN7K8Mlj-18" value="Si" style="edgeStyle=orthogonalEdgeStyle;rounded=0;orthogonalLoop=1;jettySize=auto;html=1;" edge="1" parent="WIyWlLk6GJQsqaUBKTNV-1" source="GH097Rn8X9ysuN7K8Mlj-7" target="GH097Rn8X9ysuN7K8Mlj-16">
          <mxGeometry relative="1" as="geometry" />
        </mxCell>
        <mxCell id="GH097Rn8X9ysuN7K8Mlj-7" value="¿La operacion tiene numeros?" style="rhombus;whiteSpace=wrap;html=1;" vertex="1" parent="WIyWlLk6GJQsqaUBKTNV-1">
          <mxGeometry x="335" y="350" width="130" height="110" as="geometry" />
        </mxCell>
        <mxCell id="GH097Rn8X9ysuN7K8Mlj-14" value="" style="edgeStyle=orthogonalEdgeStyle;rounded=0;orthogonalLoop=1;jettySize=auto;html=1;" edge="1" parent="WIyWlLk6GJQsqaUBKTNV-1" source="GH097Rn8X9ysuN7K8Mlj-9" target="GH097Rn8X9ysuN7K8Mlj-13">
          <mxGeometry relative="1" as="geometry" />
        </mxCell>
        <mxCell id="GH097Rn8X9ysuN7K8Mlj-9" value="" style="shape=waypoint;sketch=0;size=6;pointerEvents=1;points=[];fillColor=default;resizable=0;rotatable=0;perimeter=centerPerimeter;snapToPoint=1;" vertex="1" parent="WIyWlLk6GJQsqaUBKTNV-1">
          <mxGeometry x="600" y="395" width="20" height="20" as="geometry" />
        </mxCell>
        <mxCell id="GH097Rn8X9ysuN7K8Mlj-15" value="" style="edgeStyle=orthogonalEdgeStyle;rounded=0;orthogonalLoop=1;jettySize=auto;html=1;" edge="1" parent="WIyWlLk6GJQsqaUBKTNV-1" source="GH097Rn8X9ysuN7K8Mlj-13" target="GH097Rn8X9ysuN7K8Mlj-5">
          <mxGeometry relative="1" as="geometry" />
        </mxCell>
        <mxCell id="GH097Rn8X9ysuN7K8Mlj-13" value="Dar aviso al usuario que falta incluir números" style="shape=document;whiteSpace=wrap;html=1;boundedLbl=1;" vertex="1" parent="WIyWlLk6GJQsqaUBKTNV-1">
          <mxGeometry x="550" y="240" width="120" height="80" as="geometry" />
        </mxCell>
        <mxCell id="GH097Rn8X9ysuN7K8Mlj-22" value="No" style="edgeStyle=orthogonalEdgeStyle;rounded=0;orthogonalLoop=1;jettySize=auto;html=1;" edge="1" parent="WIyWlLk6GJQsqaUBKTNV-1" source="GH097Rn8X9ysuN7K8Mlj-16" target="GH097Rn8X9ysuN7K8Mlj-21">
          <mxGeometry relative="1" as="geometry" />
        </mxCell>
        <mxCell id="GH097Rn8X9ysuN7K8Mlj-28" value="Si" style="edgeStyle=orthogonalEdgeStyle;rounded=0;orthogonalLoop=1;jettySize=auto;html=1;" edge="1" parent="WIyWlLk6GJQsqaUBKTNV-1" source="GH097Rn8X9ysuN7K8Mlj-16" target="GH097Rn8X9ysuN7K8Mlj-27">
          <mxGeometry relative="1" as="geometry" />
        </mxCell>
        <mxCell id="GH097Rn8X9ysuN7K8Mlj-16" value="¿La operación tiene uno de los símbolos solicitados?" style="rhombus;whiteSpace=wrap;html=1;" vertex="1" parent="WIyWlLk6GJQsqaUBKTNV-1">
          <mxGeometry x="331" y="510" width="138" height="130" as="geometry" />
        </mxCell>
        <mxCell id="GH097Rn8X9ysuN7K8Mlj-24" value="" style="edgeStyle=orthogonalEdgeStyle;rounded=0;orthogonalLoop=1;jettySize=auto;html=1;" edge="1" parent="WIyWlLk6GJQsqaUBKTNV-1" source="GH097Rn8X9ysuN7K8Mlj-21" target="GH097Rn8X9ysuN7K8Mlj-23">
          <mxGeometry relative="1" as="geometry" />
        </mxCell>
        <mxCell id="GH097Rn8X9ysuN7K8Mlj-21" value="" style="shape=waypoint;sketch=0;size=6;pointerEvents=1;points=[];fillColor=default;resizable=0;rotatable=0;perimeter=centerPerimeter;snapToPoint=1;" vertex="1" parent="WIyWlLk6GJQsqaUBKTNV-1">
          <mxGeometry x="740" y="565" width="20" height="20" as="geometry" />
        </mxCell>
        <mxCell id="GH097Rn8X9ysuN7K8Mlj-25" value="" style="edgeStyle=orthogonalEdgeStyle;rounded=0;orthogonalLoop=1;jettySize=auto;html=1;entryX=0.567;entryY=0.05;entryDx=0;entryDy=0;entryPerimeter=0;" edge="1" parent="WIyWlLk6GJQsqaUBKTNV-1" source="GH097Rn8X9ysuN7K8Mlj-23" target="GH097Rn8X9ysuN7K8Mlj-5">
          <mxGeometry relative="1" as="geometry">
            <Array as="points">
              <mxPoint x="400" y="190" />
              <mxPoint x="400" y="250" />
              <mxPoint x="408" y="250" />
            </Array>
          </mxGeometry>
        </mxCell>
        <mxCell id="GH097Rn8X9ysuN7K8Mlj-23" value="Dar aviso al usuario que falta incluir uno de los siguientes símbolos :[+,-,/,*]&lt;br&gt;." style="shape=document;whiteSpace=wrap;html=1;boundedLbl=1;sketch=0;" vertex="1" parent="WIyWlLk6GJQsqaUBKTNV-1">
          <mxGeometry x="690" y="150" width="120" height="110" as="geometry" />
        </mxCell>
        <mxCell id="GH097Rn8X9ysuN7K8Mlj-32" value="" style="edgeStyle=orthogonalEdgeStyle;rounded=0;orthogonalLoop=1;jettySize=auto;html=1;" edge="1" parent="WIyWlLk6GJQsqaUBKTNV-1" source="GH097Rn8X9ysuN7K8Mlj-27" target="GH097Rn8X9ysuN7K8Mlj-31">
          <mxGeometry relative="1" as="geometry" />
        </mxCell>
        <mxCell id="GH097Rn8X9ysuN7K8Mlj-27" value="(A, #, B) = Resultado" style="shape=parallelogram;perimeter=parallelogramPerimeter;whiteSpace=wrap;html=1;fixedSize=1;direction=west;" vertex="1" parent="WIyWlLk6GJQsqaUBKTNV-1">
          <mxGeometry x="310" y="690" width="180" height="60" as="geometry" />
        </mxCell>
        <mxCell id="GH097Rn8X9ysuN7K8Mlj-30" value="" style="edgeStyle=orthogonalEdgeStyle;rounded=0;orthogonalLoop=1;jettySize=auto;html=1;" edge="1" parent="WIyWlLk6GJQsqaUBKTNV-1" source="GH097Rn8X9ysuN7K8Mlj-29" target="WIyWlLk6GJQsqaUBKTNV-3">
          <mxGeometry relative="1" as="geometry" />
        </mxCell>
        <mxCell id="GH097Rn8X9ysuN7K8Mlj-29" value="Diagrama de Operaciones." style="ellipse;whiteSpace=wrap;html=1;" vertex="1" parent="WIyWlLk6GJQsqaUBKTNV-1">
          <mxGeometry x="160" y="-20" width="120" height="80" as="geometry" />
        </mxCell>
        <mxCell id="GH097Rn8X9ysuN7K8Mlj-34" value="" style="edgeStyle=orthogonalEdgeStyle;rounded=0;orthogonalLoop=1;jettySize=auto;html=1;" edge="1" parent="WIyWlLk6GJQsqaUBKTNV-1" source="GH097Rn8X9ysuN7K8Mlj-31" target="GH097Rn8X9ysuN7K8Mlj-33">
          <mxGeometry relative="1" as="geometry" />
        </mxCell>
        <mxCell id="GH097Rn8X9ysuN7K8Mlj-31" value="Imprimir resultado al Usuario" style="shape=document;whiteSpace=wrap;html=1;boundedLbl=1;" vertex="1" parent="WIyWlLk6GJQsqaUBKTNV-1">
          <mxGeometry x="560" y="690" width="120" height="80" as="geometry" />
        </mxCell>
        <mxCell id="GH097Rn8X9ysuN7K8Mlj-33" value="Resultado de la Operación Matematica" style="ellipse;whiteSpace=wrap;html=1;" vertex="1" parent="WIyWlLk6GJQsqaUBKTNV-1">
          <mxGeometry x="560" y="830" width="120" height="80" as="geometry" />
        </mxCell>
      </root>
    </mxGraphModel>
  </diagram>
</mxfile>
